<?xml version="1.0" encoding="utf-8"?><svg width="2960" height="354" viewBox="0 0 2960 354" fill="none" xmlns="http://www.w3.org/2000/svg">
<g clip-path="url(#clip0_2665_7653)">
<rect width="2960" height="354" fill="#ED0234"/>
<path d="M990.5 137C1083.01 137 1158 62.0077 1158 -30.5C1158 -123.008 1083.01 -198 990.5 -198C897.992 -198 823 -123.008 823 -30.5C823 62.0077 897.992 137 990.5 137Z" fill="#FF0D57"/>
<path d="M1863.33 704.66C2047.42 704.66 2196.66 555.423 2196.66 371.33C2196.66 187.237 2047.42 38 1863.33 38C1679.24 38 1530 187.237 1530 371.33C1530 555.423 1679.24 704.66 1863.33 704.66Z" fill="#FF0D57"/>
<path d="M1009 545C1083.56 545 1144 484.558 1144 410C1144 335.442 1083.56 275 1009 275C934.442 275 874 335.442 874 410C874 484.558 934.442 545 1009 545Z" stroke="white" stroke-width="3" stroke-miterlimit="10"/>
<path d="M2040 115C2083.63 115 2119 79.6305 2119 36C2119 -7.6305 2083.63 -43 2040 -43C1996.37 -43 1961 -7.6305 1961 36C1961 79.6305 1996.37 115 2040 115Z" stroke="white" stroke-width="3" stroke-miterlimit="10"/>
<rect width="1494" height="840.375" transform="translate(731.003 -146.625)" fill="#EB0033"/>
<path d="M2104.03 -211.251L1987.29 -278.65C1979.82 -282.964 1970.28 -280.411 1965.99 -272.985L1863.43 -95.3366C1859.12 -87.868 1861.7 -78.3764 1869.17 -74.0627L1985.91 -6.66372C1993.38 -2.34999 2002.92 -4.90301 2007.2 -12.3284L2109.77 -189.977C2114.08 -197.446 2111.5 -206.937 2104.03 -211.251Z" fill="#FF0C37"/>
<path d="M2489.98 14.1153L2373.24 -53.2836C2365.77 -57.5974 2356.24 -55.0443 2351.95 -47.6189L2249.38 130.03C2245.07 137.498 2247.65 146.99 2255.13 151.304L2371.86 218.703C2379.34 223.016 2388.87 220.463 2393.16 213.038L2495.72 35.3893C2500.04 27.9207 2497.45 18.4291 2489.98 14.1153Z" fill="#FF0C37"/>
<path d="M2141.03 -51.7364L2231.04 0.227829C2234.8 2.39716 2236.09 7.23269 2233.88 11.0749L2199.45 70.694C2197.26 74.4931 2192.4 75.831 2188.64 73.6616L2098.64 21.6974C2094.88 19.528 2093.58 14.6925 2095.8 10.8503L2130.22 -48.7688C2132.42 -52.5678 2137.28 -53.9058 2141.03 -51.7364Z" fill="#FF0C37"/>
<path d="M1113.54 -107.641L1203.55 -55.6763C1207.3 -53.507 1208.6 -48.6715 1206.38 -44.8293L1171.96 14.7898C1169.77 18.5889 1164.91 19.9268 1161.15 17.7575L1071.14 -34.2068C1067.39 -36.3761 1066.09 -41.2116 1068.31 -45.0539L1102.73 -104.673C1104.92 -108.472 1109.78 -109.81 1113.54 -107.641Z" fill="#FF0C37"/>
<path d="M1778.86 -62.6665L1662.12 -130.065C1654.65 -134.379 1645.16 -131.801 1640.85 -124.333L1538.28 53.3159C1533.97 60.7845 1536.55 70.2762 1543.98 74.565L1660.72 141.964C1668.19 146.278 1677.68 143.7 1681.97 136.274L1784.54 -41.3742C1788.85 -48.8428 1786.29 -58.3777 1778.86 -62.6665Z" fill="#FF3C6A"/>
<path d="M1478.15 -34.8214L1361.41 -102.22C1353.94 -106.534 1344.4 -103.981 1340.11 -96.5557L1237.55 81.0928C1233.23 88.5614 1235.82 98.053 1243.29 102.367L1360.03 169.766C1367.5 174.079 1377.03 171.526 1381.32 164.101L1483.86 -13.5043C1488.17 -20.9729 1485.59 -30.4646 1478.12 -34.7783L1478.15 -34.8214Z" fill="#FF0C37"/>
<path d="M1871.16 192.085L1754.42 124.686C1746.95 120.372 1737.41 122.925 1733.13 130.351L1630.56 307.999C1626.25 315.468 1628.83 324.96 1636.3 329.273L1753.04 396.672C1760.51 400.986 1770.05 398.433 1774.34 391.007L1876.88 213.402C1881.19 205.934 1878.61 196.442 1871.13 192.128L1871.16 192.085Z" fill="#FF0C37"/>
<path d="M2264.18 418.993L2147.44 351.594C2139.97 347.281 2130.43 349.834 2126.14 357.259L2023.58 534.908C2019.27 542.376 2021.85 551.868 2029.32 556.182L2146.06 623.581C2153.53 627.894 2163.07 625.341 2167.35 617.916L2269.89 440.311C2274.2 432.842 2271.62 423.35 2264.15 419.037L2264.18 418.993Z" fill="#FF0C37"/>
<path d="M1153.93 107.359L1037.2 39.9599C1029.72 35.6461 1020.23 38.2241 1015.92 45.6927L913.354 223.341C909.042 230.81 911.624 240.301 919.052 244.59L1035.79 311.989C1043.26 316.303 1052.75 313.725 1057.04 306.3L1159.61 128.651C1163.92 121.182 1161.36 111.648 1153.93 107.359Z" fill="#FF3C6A"/>
<path d="M855.835 135.451L739.096 68.0522C731.625 63.7384 722.089 66.2915 717.802 73.7169L615.236 251.365C610.924 258.834 613.506 268.326 620.978 272.639L737.716 340.038C745.188 344.352 754.724 341.799 759.011 334.374L861.576 156.725C865.888 149.256 863.306 139.765 855.835 135.451Z" fill="#FF0C37"/>
<path d="M1549.01 335.456L1432.27 268.057C1424.8 263.743 1415.3 266.321 1410.99 273.79L1308.43 451.438C1304.12 458.907 1306.7 468.398 1314.13 472.687L1430.86 540.086C1438.34 544.4 1447.83 541.822 1452.12 534.397L1554.68 356.748C1558.99 349.279 1556.44 339.745 1549.01 335.456Z" fill="#FF3C6A"/>
<path d="M1248.84 362.351L1132.1 294.952C1124.63 290.638 1115.09 293.191 1110.81 300.617L1008.24 478.265C1003.93 485.734 1006.51 495.225 1013.98 499.539L1130.72 566.938C1138.19 571.252 1147.73 568.699 1152.02 561.273L1254.58 383.625C1258.89 376.156 1256.31 366.665 1248.84 362.351Z" fill="#FF0C37"/>
<path d="M884.036 289.878L974.04 341.843C977.798 344.012 979.095 348.848 976.876 352.69L942.455 412.309C940.262 416.108 935.401 417.446 931.643 415.277L841.639 363.312C837.881 361.143 836.585 356.307 838.803 352.465L873.224 292.846C875.417 289.047 880.278 287.709 884.036 289.878Z" fill="#FF0C37"/>
<path d="M1361.52 227.214L1216.28 143.358C1210.19 139.842 1202.43 141.921 1198.91 148.008L1143.85 243.373C1140.34 249.46 1142.42 257.224 1148.51 260.74L1293.75 344.596C1299.84 348.112 1307.61 346.033 1311.12 339.946L1366.18 244.581C1369.7 238.494 1367.61 230.73 1361.52 227.214Z" fill="#DA0533"/>
<path d="M968.523 0.314094L823.281 -83.5419C817.191 -87.0577 809.426 -84.9788 805.912 -78.8917L750.853 16.473C747.339 22.5601 749.421 30.3242 755.51 33.84L900.753 117.696C906.843 121.212 914.607 119.133 918.122 113.046L973.181 17.6811C976.695 11.594 974.613 3.82991 968.523 0.314094Z" fill="#DA0533"/>
<path d="M1506.72 119.36L1596.72 171.324C1600.48 173.493 1601.78 178.329 1599.56 182.171L1565.14 241.79C1562.94 245.589 1558.08 246.927 1554.33 244.758L1464.32 192.794C1460.56 190.624 1459.27 185.789 1461.49 181.947L1495.91 122.328C1498.1 118.528 1502.96 117.191 1506.72 119.36Z" fill="#FF0C37"/>
<path d="M1908.37 351.255L1998.38 403.22C2002.13 405.389 2003.43 410.224 2001.21 414.067L1966.79 473.686C1964.6 477.485 1959.74 478.823 1955.98 476.653L1865.98 424.689C1862.22 422.52 1860.92 417.684 1863.14 413.842L1897.56 354.223C1899.75 350.424 1904.62 349.086 1908.37 351.255Z" fill="#FF0C37"/>
<path d="M737.845 399.862L592.602 316.006C586.512 312.49 578.747 314.569 575.233 320.656L520.174 416.021C516.66 422.108 518.742 429.872 524.831 433.388L670.074 517.244C676.164 520.76 683.929 518.681 687.443 512.594L742.502 417.229C746.016 411.142 743.934 403.378 737.845 399.862Z" fill="#DA0533"/>
<path d="M2004.7 50.453L1859.46 -33.403C1853.37 -36.9188 1845.6 -34.8399 1842.09 -28.7528L1787.03 66.6119C1783.52 72.699 1785.6 80.4631 1791.69 83.9789L1936.93 167.835C1943.02 171.351 1950.79 169.272 1954.3 163.185L2009.36 67.82C2012.87 61.7329 2010.79 53.9688 2004.7 50.453Z" fill="#DA0533"/>
<path d="M2384.89 269.954L2239.65 186.098C2233.56 182.582 2225.79 184.661 2222.28 190.748L2167.22 286.113C2163.71 292.2 2165.79 299.964 2171.88 303.48L2317.12 387.336C2323.21 390.852 2330.97 388.773 2334.49 382.686L2389.55 287.321C2393.06 281.234 2390.98 273.47 2384.89 269.954Z" fill="#DA0533"/>
<path d="M2173.99 165.462L2057.25 98.0632C2049.78 93.7494 2040.29 96.3274 2035.98 103.796L1933.41 281.444C1929.1 288.913 1931.68 298.405 1939.11 302.694L2055.85 370.092C2063.32 374.406 2072.81 371.828 2077.1 364.403L2179.67 186.754C2183.98 179.286 2181.42 169.751 2173.99 165.462Z" fill="#DA0533"/>
<rect y="-54.9998" width="2977" height="761" fill="url(#paint0_linear_2665_7653)"/>
</g>
<defs>
<linearGradient id="paint0_linear_2665_7653" x1="1488.5" y1="-54.9998" x2="1489.19" y2="583.512" gradientUnits="userSpaceOnUse">
<stop stop-color="#EB0033"/>
<stop offset="1" stop-color="#EC0134" stop-opacity="0.31"/>
</linearGradient>
<clipPath id="clip0_2665_7653">
<rect width="2960" height="354" fill="white"/>
</clipPath>
</defs>
</svg>
